# xmcd CD database file
#
# Track frame offsets:
#	150
#	20448
#	39496
#	65407
#	79746
#	92158
#	110837
#	126908
#	144249
#	160245
#
# Disc length: 2316 seconds
#
# Revision: 0
# Processed by: cddbd v1.5.2PL0 Copyright (c) Steve Scherf et al.
# Submitted via: CDex 1.70beta2
#
DISCID=82090a0a
DTITLE=BigBandLE - Pacific Rainbos
DYEAR=1995
DGENRE=Jazz
TTITLE0=The Letter
TTITLE1=Pacific Rainbow
TTITLE2=New York State of Mind
TTITLE3=Jailhouse Rock
TTITLE4=Dinner for One
TTITLE5=25 or 6 to 4
TTITLE6=Route 66
TTITLE7=Sittin' on the Dock of the Bay
TTITLE8=Gospel Truth
TTITLE9=Dinner for One (HipMixed Version)
EXTD=YEAR: 1995
EXTT0=
EXTT1=
EXTT2=
EXTT3=
EXTT4=
EXTT5=
EXTT6=
EXTT7=
EXTT8=
EXTT9=
PLAYORDER=
